<svg width="243" height="148" viewBox="0 0 243 148" fill="none" xmlns="http://www.w3.org/2000/svg">
<path d="M50.292 0.282043H33.535C31.2212 0.282043 29.3456 2.1577 29.3456 4.47142V12.8502H54.4814V4.47094C54.4814 2.15722 52.6062 0.282043 50.292 0.282043Z" fill="#464655"/>
<path d="M75.4275 0.281982H67.0487C64.735 0.281982 62.8594 2.15764 62.8594 4.47136V12.8501H79.6164V4.47088C79.6169 2.15716 77.7417 0.281982 75.4275 0.281982Z" fill="#707487"/>
<path d="M33.5276 142.718H25.127C22.8161 142.718 20.9414 140.847 20.9376 138.535L20.9238 130.15H37.7032L37.7169 138.521C37.7207 140.838 35.8441 142.718 33.5276 142.718Z" fill="#464655"/>
<path d="M217.864 142.718H209.464C207.15 142.718 205.274 140.842 205.274 138.529V130.15H222.054V138.529C222.054 140.842 220.178 142.718 217.864 142.718Z" fill="#464655"/>
<path d="M217.864 130.15H25.1562C13.5881 130.15 4.20978 120.772 4.20978 109.204V33.7961C4.20978 22.228 13.5881 12.8497 25.1562 12.8497H217.864C229.432 12.8497 238.811 22.228 238.811 33.7961V109.203C238.811 120.772 229.432 130.15 217.864 130.15Z" fill="#707487"/>
<path d="M217.864 117.582H25.1562C20.5287 117.582 16.7774 113.831 16.7774 109.203V33.7961C16.7774 29.1687 20.5283 25.4174 25.1562 25.4174H217.864C222.492 25.4174 226.243 29.1682 226.243 33.7961V109.203C226.243 113.831 222.492 117.582 217.864 117.582Z" fill="#464655"/>
<path d="M217.864 134.34H25.1358C11.2748 134.34 0 123.064 0 109.204V33.7961C0 19.9351 11.2748 8.66028 25.1358 8.66028H217.864C231.725 8.66028 243 19.9351 243 33.7961V109.203C243 123.064 231.725 134.34 217.864 134.34ZM25.1358 17.039C15.8942 17.039 8.37875 24.5545 8.37875 33.7961V109.203C8.37875 118.445 15.8942 125.96 25.1358 125.96H217.864C227.106 125.96 234.621 118.445 234.621 109.203V33.7961C234.621 24.5545 227.106 17.039 217.864 17.039H25.1358Z" fill="#F4A15D"/>
</svg>
