<svg width="150" height="100" viewBox="0 0 150 100" fill="none" xmlns="http://www.w3.org/2000/svg">
<rect width="150" height="100" fill="white"/>
<mask id="path-1-inside-1_0_1" fill="white">
<path d="M150 100C150 86.8678 148.06 73.8642 144.291 61.7317C140.522 49.5991 134.997 38.5752 128.033 29.2893C121.069 20.0035 112.801 12.6375 103.701 7.61204C94.6018 2.58657 84.8491 -2.1395e-06 75 0C65.1508 2.13951e-06 55.3981 2.58658 46.2987 7.61205C37.1993 12.6375 28.9314 20.0035 21.967 29.2893C15.0026 38.5752 9.47813 49.5991 5.70903 61.7317C1.93993 73.8642 -3.20925e-06 86.8678 0 100L75 100H150Z"/>
</mask>
<path d="M150 100C150 86.8678 148.06 73.8642 144.291 61.7317C140.522 49.5991 134.997 38.5752 128.033 29.2893C121.069 20.0035 112.801 12.6375 103.701 7.61204C94.6018 2.58657 84.8491 -2.1395e-06 75 0C65.1508 2.13951e-06 55.3981 2.58658 46.2987 7.61205C37.1993 12.6375 28.9314 20.0035 21.967 29.2893C15.0026 38.5752 9.47813 49.5991 5.70903 61.7317C1.93993 73.8642 -3.20925e-06 86.8678 0 100L75 100H150Z" fill="white" stroke="black" stroke-width="2" mask="url(#path-1-inside-1_0_1)"/>
<path d="M29.3943 62.425L25.5917 53.6094L42.8001 35.9692L48.1398 40.5437L29.3943 62.425Z" fill="white" stroke="black"/>
<path d="M118.746 63.4558L122.548 54.6402L105.34 37L100 41.5745L118.746 63.4558Z" fill="white" stroke="black"/>
<rect x="53.6406" y="27.3943" width="16.8651" height="6" transform="rotate(-19.9477 53.6406 27.3943)" fill="white" stroke="black"/>
<g clip-path="url(#clip0_0_1)">
<path d="M78.5062 21.6406L94.3594 27.3943L92.3124 33.0344L76.4592 27.2806L78.5062 21.6406Z" fill="white" stroke="black"/>
</g>
<defs>
<clipPath id="clip0_0_1">
<rect width="20" height="13" fill="white" transform="matrix(-1 0 0 1 95 21)"/>
</clipPath>
</defs>
</svg>
