<svg width="6" height="58" viewBox="0 0 6 58" fill="none" xmlns="http://www.w3.org/2000/svg">
<path d="M3 57.6667C4.47276 57.6667 5.66667 56.4728 5.66667 55C5.66667 53.5272 4.47276 52.3333 3 52.3333C1.52724 52.3333 0.333333 53.5272 0.333333 55C0.333333 56.4728 1.52724 57.6667 3 57.6667ZM3 5.66666C4.47276 5.66666 5.66667 4.47276 5.66667 3C5.66667 1.52724 4.47276 0.333332 3 0.333332C1.52724 0.333332 0.333333 1.52724 0.333333 3C0.333333 4.47276 1.52724 5.66666 3 5.66666ZM3.5 55V52.4H2.5V55H3.5ZM3.5 47.2V42H2.5V47.2H3.5ZM3.5 36.8L3.5 31.6H2.5V36.8H3.5ZM3.5 26.4L3.5 21.2H2.5V26.4H3.5ZM3.5 16L3.5 10.8H2.5L2.5 16H3.5ZM3.5 5.59999V3H2.5V5.59999H3.5Z" fill="#5B5B5B"/>
</svg>
