<svg width="23" height="25" viewBox="0 0 23 25" fill="none" xmlns="http://www.w3.org/2000/svg">
<path id="Vector" d="M17.8049 4.06853L15.4746 5.85539L15.3381 5.9601L15.3871 6.12504L16.2245 8.94074L13.8044 7.27522L13.6627 7.17768L13.5209 7.27522L11.1009 8.94074L11.9382 6.12504L11.9873 5.9601L11.8507 5.85539L9.52041 4.06853L12.4593 3.98561L12.6308 3.98078L12.688 3.819L13.6627 1.06041L14.6374 3.819L14.6945 3.98078L14.866 3.98561L17.8049 4.06853ZM21.7948 11.9617L20.4882 12.9576L20.3508 13.0623L20.4001 13.2278L20.8715 14.8098L19.5139 13.8754L19.3722 13.7779L19.2304 13.8754L17.8729 14.8098L18.3443 13.2278L18.3936 13.0623L18.2562 12.9576L16.9496 11.9617L18.5903 11.9219L18.7625 11.9177L18.8199 11.7554L19.3722 10.1947L19.9244 11.7554L19.9819 11.9177L20.154 11.9219L21.7948 11.9617ZM19.9323 17.6304L19.9329 17.6303C20.2848 17.5964 20.6984 17.8361 20.9646 18.2238C21.2289 18.6089 21.2824 19.0398 21.0638 19.3494C20.7045 19.8546 20.3266 20.3208 19.8621 20.7632L19.862 20.7631L19.8573 20.7679C15.49 25.1575 8.42092 25.1572 4.0654 20.7681L4.06449 20.7672C-0.302423 16.4115 -0.302423 9.33044 4.0645 4.97469L4.06472 4.97446C4.51248 4.5267 4.98141 4.12491 5.48275 3.76838C5.79242 3.54978 6.22326 3.60324 6.60836 3.8676C6.99611 4.13378 7.23577 4.54734 7.20184 4.89931L7.2018 4.8998C6.88682 8.2362 8.00664 11.7022 10.574 14.2582C13.1299 16.8255 16.5845 17.9453 19.9323 17.6304ZM18.2029 19.8744L18.6519 19.4725L18.0503 19.4385C14.8781 19.2592 11.7392 17.9479 9.3059 15.5488C6.87312 13.0931 5.57299 9.94299 5.39364 6.78186L5.35951 6.18036L4.95775 6.6293C1.6607 10.3135 1.79017 15.9681 5.32096 19.5106L5.32155 19.5112C8.86407 23.042 14.5186 23.1715 18.2029 19.8744Z" fill="black" stroke="white" stroke-width="0.5"/>
</svg>
