<svg id="shield" xmlns="http://www.w3.org/2000/svg" width="31.1" height="35.578" viewBox="0 0 31.1 35.578">
  <g id="Group_214" data-name="Group 214" transform="translate(0.696 0.695)">
    <path id="Path_1039" data-name="Path 1039" d="M41.983,14.347a21.247,21.247,0,0,0,10.5-4.1h8.7a21.247,21.247,0,0,0,10.5,4.1V27.326c0,8.374-8.5,15.411-14.854,17.113-6.353-1.7-14.854-8.739-14.854-17.113Z" transform="translate(-41.983 -10.251)" fill="#ccc" fill-rule="evenodd"/>
    <path id="Path_1040" data-name="Path 1040" d="M71.983,44.091v11.15a10.847,10.847,0,0,0,.375,2.8c1.435,5.379,7.1,10.495,12.394,12.144A21.251,21.251,0,0,0,93.664,64.2a13.827,13.827,0,0,0,3.859-8.962V44.091a23.782,23.782,0,0,1-9.072-3.84h-7.4a23.781,23.781,0,0,1-9.072,3.84Z" transform="translate(-69.898 -38.166)" fill="#e6e6e6" fill-rule="evenodd"/>
    <circle id="Ellipse_117" data-name="Ellipse 117" cx="8.809" cy="8.809" r="8.809" transform="translate(2.394 15.775) rotate(-45)" fill="#92d2fe"/>
  </g>
  <path id="Path_1041" data-name="Path 1041" d="M61.683,5.671a22.135,22.135,0,0,1-10.03-4.032h-8.26a22.149,22.149,0,0,1-10.03,4.032V18.019c0,8.03,8.306,14.734,14.16,16.392,5.854-1.659,14.16-8.362,14.16-16.392Zm1.39-.63V18.019a14.406,14.406,0,0,1-1.5,6.269,20.209,20.209,0,0,1-3.743,5.273A23.362,23.362,0,0,1,47.7,35.8a.708.708,0,0,1-.18.024.692.692,0,0,1-.18-.024,23.362,23.362,0,0,1-10.129-6.243,20.21,20.21,0,0,1-3.743-5.273,14.406,14.406,0,0,1-1.5-6.269V5.041a.7.7,0,0,1,.639-.693A20.781,20.781,0,0,0,42.767.378a.694.694,0,0,1,.4-.129h8.706a.694.694,0,0,1,.4.129A20.782,20.782,0,0,0,62.431,4.348a.7.7,0,0,1,.642.693ZM47.523,8.6a8.115,8.115,0,1,1-8.116,8.115A8.125,8.125,0,0,1,47.523,8.6Zm0-1.39a9.5,9.5,0,1,1-9.506,9.5A9.516,9.516,0,0,1,47.523,7.214ZM45.868,18.928l5.956-5.954a.7.7,0,1,1,.983.983L46.3,20.463a.7.7,0,0,1-.492.2h-.043a.7.7,0,0,1-.5-.263l-3.075-3.894a.7.7,0,0,1,1.092-.862Z" transform="translate(-31.973 -0.249)" fill-rule="evenodd"/>
</svg>
