<svg xmlns="http://www.w3.org/2000/svg" width="38.729" height="38.727" viewBox="0 0 38.729 38.727">
  <g id="Group_180" data-name="Group 180" transform="translate(0)">
    <g id="Group_180-2" data-name="Group 180" transform="translate(28.951 4.161)">
      <path id="Path_982" data-name="Path 982" d="M381.335,43.643a1.068,1.068,0,1,1-1.067-1.067A1.068,1.068,0,0,1,381.335,43.643Z" transform="translate(-379.2 -42.576)" fill="#878787"/>
    </g>
    <g id="Group_181" data-name="Group 181" transform="translate(24.923 12.272)">
      <path id="Path_983" data-name="Path 983" d="M334.691,158.015v-1.542a3.744,3.744,0,0,0-3.744-3.744h-2.7a3.744,3.744,0,0,0-3.744,3.744v1.542Z" transform="translate(-324.5 -152.729)" fill="#a1d51c"/>
    </g>
    <g id="Group_182" data-name="Group 182" transform="translate(28.957 10.118)">
      <path id="Path_984" data-name="Path 984" d="M381.407,123.475v2.439a1.061,1.061,0,0,1-2.122,0v-2.439Z" transform="translate(-379.285 -123.475)" fill="#f9e109"/>
    </g>
    <g id="Group_183" data-name="Group 183" transform="translate(27.479 6.612)">
      <path id="Path_985" data-name="Path 985" d="M364.3,77.792c0,1.4-1.138,3.338-2.54,3.338s-2.538-1.935-2.538-3.338,1.138-1.94,2.538-1.94S364.3,76.391,364.3,77.792Z" transform="translate(-359.219 -75.852)" fill="#f9e109"/>
    </g>
    <g id="Group_184" data-name="Group 184" transform="translate(27.48 5.624)">
      <path id="Path_986" data-name="Path 986" d="M364.3,65.517a4.127,4.127,0,0,0-5.078,0,2.584,2.584,0,1,1,5.078,0Z" transform="translate(-359.227 -62.452)" fill="#878787"/>
    </g>
    <g id="Group_185" data-name="Group 185" transform="translate(17.011 17.558)">
      <path id="Path_987" data-name="Path 987" d="M238.527,225.313v1.265a.8.8,0,0,1-.8.8H217.048v-2.866h20.678A.8.8,0,0,1,238.527,225.313Z" transform="translate(-217.048 -224.513)" fill="#878787"/>
    </g>
    <g id="Group_186" data-name="Group 186" transform="translate(17.011 20.423)">
      <path id="Path_988" data-name="Path 988" d="M237.064,263.433v12.585a1,1,0,0,1-1,1H217.048V263.433Z" transform="translate(-217.048 -263.433)" fill="#b37f59"/>
    </g>
    <g id="Group_188" data-name="Group 188" transform="translate(17.011 20.424)" opacity="0.1">
      <g id="Group_187" data-name="Group 187" transform="translate(0 0)">
        <path id="Path_989" data-name="Path 989" d="M237.072,263.446v12.583a1,1,0,0,1-1,1h-.328V266.642a1.868,1.868,0,0,0-1.867-1.869h-16.82v-1.327Z" transform="translate(-217.056 -263.446)"/>
      </g>
    </g>
    <g id="Group_189" data-name="Group 189" transform="translate(15.813 13.717)">
      <path id="Path_990" data-name="Path 990" d="M200.78,172.357h2.71v2.914h-2.71Z" transform="translate(-200.78 -172.357)" fill="#f9e109"/>
    </g>
    <g id="Group_190" data-name="Group 190" transform="translate(11.848 15.611)">
      <path id="Path_991" data-name="Path 991" d="M157.57,201.986v6.034a.707.707,0,0,1-.708.708h-9.225a.707.707,0,0,1-.708-.708v-6.034a3.908,3.908,0,0,1,3.908-3.908,2.529,2.529,0,0,0,2.822,0A3.909,3.909,0,0,1,157.57,201.986Z" transform="translate(-146.929 -198.078)" fill="#65c5ef"/>
    </g>
    <g id="Group_191" data-name="Group 191" transform="translate(14.233 26.262)">
      <path id="Path_992" data-name="Path 992" d="M179.328,342.723H185.2V354.6h-5.869Z" transform="translate(-179.328 -342.723)" fill="#dbdddb"/>
    </g>
    <g id="Group_192" data-name="Group 192" transform="translate(17.168 36.76)">
      <path id="Path_993" data-name="Path 993" d="M222.81,487.03h-3.63V485.3h2.934l1.017.735A.547.547,0,0,1,222.81,487.03Z" transform="translate(-219.18 -485.304)" fill="#878787"/>
    </g>
    <g id="Group_193" data-name="Group 193" transform="translate(12.99 36.76)">
      <path id="Path_994" data-name="Path 994" d="M162.987,487.03h3.63V485.3h-2.934l-1.017.735A.547.547,0,0,0,162.987,487.03Z" transform="translate(-162.438 -485.304)" fill="#878787"/>
    </g>
    <g id="Group_194" data-name="Group 194" transform="translate(12.555 26.262)">
      <path id="Path_995" data-name="Path 995" d="M158.219,342.723v.413a.839.839,0,1,1-1.679,0v-.413Z" transform="translate(-156.54 -342.723)" fill="#f9e109"/>
    </g>
    <g id="Group_195" data-name="Group 195" transform="translate(20.102 26.262)">
      <path id="Path_996" data-name="Path 996" d="M260.711,342.723v.413a.839.839,0,0,1-1.679,0v-.413Z" transform="translate(-259.032 -342.723)" fill="#f9e109"/>
    </g>
    <g id="Group_196" data-name="Group 196" transform="translate(2.361 27.216)">
      <path id="Path_997" data-name="Path 997" d="M26.3,356.755v8.277a1.079,1.079,0,0,1-1.079,1.079H19.173a1.079,1.079,0,0,1-1.079-1.079v-8.277a1.079,1.079,0,0,1,1.079-1.079h6.049A1.079,1.079,0,0,1,26.3,356.755Z" transform="translate(-18.094 -355.676)" fill="#f9e109"/>
    </g>
    <g id="Group_197" data-name="Group 197" transform="translate(4.087 32.684)">
      <path id="Path_998" data-name="Path 998" d="M41.532,430.361v2.378a.432.432,0,0,0,.431.432h3.891a.432.432,0,0,0,.431-.432v-2.378a.431.431,0,0,0-.431-.432H41.963A.432.432,0,0,0,41.532,430.361Z" transform="translate(-41.532 -429.93)" fill="#f8664f"/>
    </g>
    <g id="Group_198" data-name="Group 198" transform="translate(4.087 28.942)">
      <path id="Path_999" data-name="Path 999" d="M46.286,380.632v-1.087a.431.431,0,0,0-.432-.431H41.963a.431.431,0,0,0-.431.431v1.087a.432.432,0,0,0,.431.431h3.891A.432.432,0,0,0,46.286,380.632Z" transform="translate(-41.532 -379.114)" fill="#f8664f"/>
    </g>
    <circle id="Ellipse_112" data-name="Ellipse 112" cx="3.712" cy="3.712" r="3.712" transform="translate(0 6.637) rotate(-63.435)" fill="#dbdddb"/>
    <g id="Group_200" data-name="Group 200" transform="translate(35.252 28.976)">
      <path id="Path_1000" data-name="Path 1000" d="M465.015,382.426a.24.24,0,0,1-.24-.24v-2.369a.24.24,0,1,1,.48,0v2.369A.24.24,0,0,1,465.015,382.426Z" transform="translate(-464.775 -379.577)" fill="#fff"/>
    </g>
    <g id="Group_201" data-name="Group 201" transform="translate(35.252 26.976)">
      <path id="Path_1001" data-name="Path 1001" d="M465.015,353.6a.24.24,0,0,1-.24-.24v-.688a.24.24,0,1,1,.48,0v.688A.24.24,0,0,1,465.015,353.6Z" transform="translate(-464.775 -352.427)" fill="#fff"/>
    </g>
    <g id="Group_202" data-name="Group 202" transform="translate(14.386 8.508)">
      <path id="Path_1002" data-name="Path 1002" d="M182.9,107.941a2.641,2.641,0,0,0,2.593,0,.93.93,0,0,0,.374-.3,8.005,8.005,0,0,0,1.1-3.244,2.782,2.782,0,1,0-5.564,0,8.085,8.085,0,0,0,1.068,3.2A.964.964,0,0,0,182.9,107.941Z" transform="translate(-181.4 -101.614)" fill="#878787"/>
    </g>
    <g id="Group_203" data-name="Group 203" transform="translate(26.391 35.304)">
      <path id="Path_1003" data-name="Path 1003" d="M347.946,465.517h-3.273a.24.24,0,1,0,0,.48h3.273a.24.24,0,1,0,0-.48Z" transform="translate(-344.433 -465.517)"/>
    </g>
    <g id="Group_204" data-name="Group 204" transform="translate(30.825 35.304)">
      <path id="Path_1004" data-name="Path 1004" d="M405.915,465.517h-1.027a.24.24,0,0,0,0,.48h1.027a.24.24,0,0,0,0-.48Z" transform="translate(-404.649 -465.517)"/>
    </g>
    <g id="Group_205" data-name="Group 205" transform="translate(11.608 3.922)">
      <path id="Path_1005" data-name="Path 1005" d="M169.753,52.715h-2.335v-1.3a3.988,3.988,0,0,0-3.984-3.984h-.051v-.4a4.334,4.334,0,0,0,1.477-3.026h0a3.391,3.391,0,0,0-1.568-2.892,1.294,1.294,0,0,0,.1-.491,1.308,1.308,0,0,0-2.615,0,1.291,1.291,0,0,0,.1.491,3.381,3.381,0,0,0-1.564,2.829H159.3a4.305,4.305,0,0,0,1.477,3.089v.4h-.051a3.988,3.988,0,0,0-3.984,3.984v1.3h-2.59a4.151,4.151,0,0,0-3.331-1.941v-.433a1.116,1.116,0,0,0,.281-.269,8.221,8.221,0,0,0,1.146-3.383,3.022,3.022,0,1,0-6.044,0,8.3,8.3,0,0,0,1.109,3.33,1.19,1.19,0,0,0,.318.315v.44a4.153,4.153,0,0,0-3.965,4.144v6.034a.947.947,0,0,0,.708.913v.208a1.078,1.078,0,0,0,1.678.9v9.067l-.917.663a.787.787,0,0,0,.461,1.425h7.26a.787.787,0,0,0,.461-1.425l-.917-.663V69.646H168.09a1.242,1.242,0,0,0,1.24-1.24V56.06h.423a1.041,1.041,0,0,0,1.04-1.04V53.755A1.041,1.041,0,0,0,169.753,52.715ZM162.084,39.8a.828.828,0,0,1,.827.827.811.811,0,0,1-.055.289,2.326,2.326,0,0,0-1.546,0,.8.8,0,0,1-.055-.289A.829.829,0,0,1,162.084,39.8Zm0,1.464a2.506,2.506,0,0,1,2.269,2.371,4.24,4.24,0,0,0-4.539,0A2.506,2.506,0,0,1,162.083,41.261ZM159.8,44.209a3.834,3.834,0,0,1,4.567,0c-.126,1.307-1.171,2.841-2.282,2.841S159.925,45.515,159.8,44.209Zm3.107,3.125v.62a.821.821,0,1,1-1.642,0v-.62a1.857,1.857,0,0,0,1.642,0Zm-5.676,4.078a3.508,3.508,0,0,1,3.5-3.5h.051v.045a1.3,1.3,0,1,0,2.6,0v-.045h.051a3.508,3.508,0,0,1,3.5,3.5v1.3h-1.8v-1.92a.24.24,0,0,0-.48,0v1.92h-5.143v-1.92a.24.24,0,1,0-.48,0v1.92h-1.8v-1.3Zm-9.11-.854a2.639,2.639,0,0,0,2.23.016V50.9a2.235,2.235,0,0,1-2.23,0Zm-1.427-3.869a2.542,2.542,0,1,1,5.084,0,7.862,7.862,0,0,1-1.057,3.1.689.689,0,0,1-.278.22,2.413,2.413,0,0,1-2.4,0,.722.722,0,0,1-.321-.261A7.946,7.946,0,0,1,146.69,46.689Zm-1.231,15.983a.6.6,0,0,1-.6-.6V61.9h1.2v.181A.6.6,0,0,1,145.459,62.672Zm3.533,10.973H145.6a.307.307,0,0,1-.18-.556l.954-.69h2.616Zm.24-8.236a.24.24,0,0,0-.24.24v6.27h-2.455V62.087c0-.005,0-.01,0-.015V61.9h5.389V71.918h-2.455v-6.27A.24.24,0,0,0,149.232,65.408Zm3.81,7.68a.307.307,0,0,1-.18.556h-3.39V72.4h2.616ZM152.167,54.5a.24.24,0,0,0-.24.24v6.683h-5.389V54.736a.24.24,0,0,0-.48,0v6.683H144.62a.469.469,0,0,1-.468-.468V54.917a3.673,3.673,0,0,1,3.6-3.668,2.748,2.748,0,0,0,2.953,0,3.674,3.674,0,0,1,3.605,3.668V60.95a.469.469,0,0,1-.468.468h-1.438V54.736a.24.24,0,0,0-.24-.24Zm1.439,7.4v.173a.6.6,0,1,1-1.2,0V61.9Zm15.246,6.506a.762.762,0,0,1-.761.761H152.406v-6.2a1.078,1.078,0,0,0,1.679-.9v-.208a.947.947,0,0,0,.707-.913V56.06h14.059Zm1.463-13.385a.561.561,0,0,1-.561.561H154.792v-.664a4.121,4.121,0,0,0-.376-1.722h15.337a.561.561,0,0,1,.561.561V55.02Z" transform="translate(-143.672 -39.318)"/>
    </g>
    <g id="Group_206" data-name="Group 206" transform="translate(2.121 22.644)">
      <path id="Path_1006" data-name="Path 1006" d="M22.2,297.919H21.052v-3.852h.467a.24.24,0,1,0,0-.48H16.84a.24.24,0,1,0,0,.48h.467v3.852H16.156a1.32,1.32,0,0,0-1.319,1.319v8.277a1.32,1.32,0,0,0,1.319,1.319h.226v.6a.24.24,0,1,0,.48,0v-.6H21.5v.6a.24.24,0,1,0,.48,0v-.6H22.2a1.32,1.32,0,0,0,1.319-1.319v-8.277A1.32,1.32,0,0,0,22.2,297.919Zm-4.417-3.852h2.785v3.852H17.787Zm5.256,13.448a.84.84,0,0,1-.839.839H16.156a.84.84,0,0,1-.839-.839v-8.277a.84.84,0,0,1,.839-.839H22.2a.84.84,0,0,1,.839.839Z" transform="translate(-14.837 -293.587)"/>
    </g>
    <g id="Group_207" data-name="Group 207" transform="translate(3.847 32.445)">
      <path id="Path_1007" data-name="Path 1007" d="M42.838,426.674H38.946a.672.672,0,0,0-.671.671v2.378a.672.672,0,0,0,.671.671h3.891a.672.672,0,0,0,.671-.671v-2.378A.672.672,0,0,0,42.838,426.674Zm.192,3.049a.192.192,0,0,1-.192.192H38.946a.192.192,0,0,1-.192-.192v-2.378a.192.192,0,0,1,.192-.192h3.891a.192.192,0,0,1,.192.192Z" transform="translate(-38.275 -426.674)"/>
    </g>
    <g id="Group_208" data-name="Group 208" transform="translate(3.847 28.703)">
      <path id="Path_1008" data-name="Path 1008" d="M42.838,375.858H38.946a.672.672,0,0,0-.671.671v1.087a.672.672,0,0,0,.671.671h3.891a.672.672,0,0,0,.671-.671v-1.087A.672.672,0,0,0,42.838,375.858Zm.192,1.758a.192.192,0,0,1-.192.192H38.946a.192.192,0,0,1-.192-.192v-1.087a.192.192,0,0,1,.192-.192h3.891a.192.192,0,0,1,.192.192Z" transform="translate(-38.275 -375.858)"/>
    </g>
    <g id="Group_209" data-name="Group 209" transform="translate(1.029 1.025)">
      <path id="Path_1009" data-name="Path 1009" d="M3.952,7.9A3.952,3.952,0,1,0,0,3.952,3.956,3.956,0,0,0,3.952,7.9Zm0-7.424A3.472,3.472,0,1,1,.48,3.952,3.476,3.476,0,0,1,3.952.48Z" transform="translate(0 0)"/>
    </g>
    <g id="Group_210" data-name="Group 210" transform="translate(4.741 2.641)">
      <path id="Path_1010" data-name="Path 1010" d="M50.653,24.512H52.14a.24.24,0,0,0,0-.48H50.893V22.176a.24.24,0,0,0-.48,0v2.1A.24.24,0,0,0,50.653,24.512Z" transform="translate(-50.413 -21.936)"/>
    </g>
    <g id="Group_211" data-name="Group 211" transform="translate(16.099 6.733)">
      <path id="Path_1011" data-name="Path 1011" d="M204.952,78.066a4.105,4.105,0,0,1,.783-.075.24.24,0,0,0,0-.48,4.575,4.575,0,0,0-.875.084.24.24,0,1,0,.092.471Z" transform="translate(-204.667 -77.511)"/>
    </g>
    <g id="Group_212" data-name="Group 212" transform="translate(12.611 7.119)">
      <path id="Path_1012" data-name="Path 1012" d="M157.54,87.164a.24.24,0,0,0,.24-.24,4.093,4.093,0,0,1,2.393-3.715.24.24,0,1,0-.2-.437,4.574,4.574,0,0,0-2.674,4.151A.24.24,0,0,0,157.54,87.164Z" transform="translate(-157.3 -82.751)"/>
    </g>
  </g>
</svg>
