<svg id="doctor" xmlns="http://www.w3.org/2000/svg" width="25.875" height="35.578" viewBox="0 0 25.875 35.578">
  <path id="Path_1045" data-name="Path 1045" d="M98.783,189H91v5.559h7.783Z" transform="translate(-81.802 -169.897)" fill="#ffe0bf"/>
  <path id="Path_1046" data-name="Path 1046" d="M45.455,13.178h1.072a1.182,1.182,0,0,0,1.042-.625l.04-.071v-2.6c0-.363.384-.7.708-.534a7.129,7.129,0,0,0,1.123.534,9.173,9.173,0,0,0,3.56.2,15.389,15.389,0,0,0,2.64-.353c.981-.192,2.488-.645,2.488-.645s.485.746.759,1.25a3.6,3.6,0,0,1,.455,1.2c.121.544-.131.746.1,1.27v.01a.683.683,0,0,0,.607.383h1.426V8.147a1.34,1.34,0,0,0-.051-.343,5.289,5.289,0,0,0-.354-.917,2.947,2.947,0,0,0-.759-.9,3.147,3.147,0,0,0-1.274-.7,3.681,3.681,0,0,0-.678-.151,2.195,2.195,0,0,1-.779-.282l-.819-.474a10.563,10.563,0,0,0-1.628-.353,8.27,8.27,0,0,0-2.336.151,22.756,22.756,0,0,0-3.358.9s-1.861.585-2.994,1.1c-.566.252-1.254.111-1.426.7-.192.635,1.032,1.17,1.032,1.17l-.273.514a2.116,2.116,0,0,0-.324,1.119Z" transform="translate(-40.452 -3.596)" fill="#f2b983"/>
  <path id="Path_1047" data-name="Path 1047" d="M42.091,58.85,42.283,55a15.323,15.323,0,0,0,3.046.95,19.491,19.491,0,0,0,4.321-.2L52.594,55a3.821,3.821,0,0,1,.759.849,6.275,6.275,0,0,1,.577,1.576c.162.586.051.92.395,1.425a1.314,1.314,0,0,0,.607.293,4.57,4.57,0,0,1,1.4.182,3.145,3.145,0,0,1,.445.344,1.571,1.571,0,0,1,.587,1.657,1.358,1.358,0,0,1-.455.869,1.507,1.507,0,0,1-.81.4,3.133,3.133,0,0,1-.961,0,11.071,11.071,0,0,1-.3,1.748,6.006,6.006,0,0,1-.587,1.394,6.507,6.507,0,0,1-1.164,1.516,5.481,5.481,0,0,1-2.054,1.354,6.583,6.583,0,0,1-1.811.435c-.253.02-.476.04-.476.04a6.471,6.471,0,0,1-1.821,0,7.69,7.69,0,0,1-4.26-2.415,5.528,5.528,0,0,1-.921-1.607l-.172-.465a14.263,14.263,0,0,1-.506-2,2.913,2.913,0,0,1-.759,0,1.369,1.369,0,0,1-.8-.394,1.492,1.492,0,0,1-.3-.455,1.839,1.839,0,0,1-.061-1.5,2.086,2.086,0,0,1,1.194-.96.592.592,0,0,1,.192-.02c.425.01.89-.02,1.214-.04a.4.4,0,0,0,.354-.384Z" transform="translate(-35.058 -49.441)" fill="#ffe0bf"/>
  <path id="Path_1048" data-name="Path 1048" d="M93.229,242.784,90,233.111l2.561,1.172a5.585,5.585,0,0,0,2.884-.071L97.682,233l-3.006,9.4c-.132.4-.3.91-.719.91A.763.763,0,0,1,93.229,242.784Z" transform="translate(-80.903 -209.45)" fill="#ff624e"/>
  <path id="Path_1049" data-name="Path 1049" d="M11.355,210.222l1.326-.182,4.179,12.129a.677.677,0,0,0,1.285-.02l2.54-7.9L22.113,210l1.6.131a.037.037,0,0,1,.03.01c.121.03.4.3.334.505l-.293.889.506.051s3.137.526,4.362,1.9a8.49,8.49,0,0,1,1.214,2.3v7.51a1.65,1.65,0,0,1-1.376.728l-8.44.02H6.488A1.554,1.554,0,0,1,5,222.948v-6.711a9.969,9.969,0,0,1,.557-1.4,5.266,5.266,0,0,1,1.012-1.354A6.169,6.169,0,0,1,9.16,211.92a12.134,12.134,0,0,1,2.085-.505l-.233-.647c-.132-.212.1-.485.344-.546Z" transform="translate(-4.495 -188.774)" fill="#fff"/>
  <path id="Path_1050" data-name="Path 1050" d="M26.4,294h4.75a.405.405,0,0,1,.4.4v2.729a.406.406,0,0,1-.4.4H26.4a.405.405,0,0,1-.4-.4V294.4A.405.405,0,0,1,26.4,294Z" transform="translate(-23.372 -264.284)" fill="#e2e4f1"/>
  <g id="Group_255" data-name="Group 255">
    <path id="Path_1051" data-name="Path 1051" d="M199.437,280.516h-1.112V279.4a.4.4,0,0,0-.809,0v1.112H196.4a.4.4,0,0,0,0,.809h1.112v1.112a.4.4,0,0,0,.809,0v-1.112h1.112a.4.4,0,0,0,0-.809Z" transform="translate(-176.189 -250.8)" fill="#445665"/>
    <path id="Path_1052" data-name="Path 1052" d="M20.144,22.425l1.648.455a5.548,5.548,0,0,1,4.083,5.314v6.142a1.214,1.214,0,0,1-1.213,1.2H15.09l-.02.04-.091-.04H1.213A1.214,1.214,0,0,1,0,34.336V28.2A5.5,5.5,0,0,1,4.094,22.91l1.961-.535a1.207,1.207,0,0,1,1.071-1.313l.94-.111a.409.409,0,0,1,.414.141V18.627A7.255,7.255,0,0,1,5.7,13.606H5.468a1.911,1.911,0,0,1-1.931-1.9v-.2A1.694,1.694,0,0,1,4.66,9.919V5.827a1.961,1.961,0,0,1,.505-1.3,3.99,3.99,0,0,1-1.2-1.384.446.446,0,0,1,.051-.374c.13-.2.33-.222.61-.252h.013a5.505,5.505,0,0,0,1.51-.333c.6-.222,1.223-.475,1.819-.737.2-.081.4-.163.594-.242C8.943,1.042,9.3.894,9.612.786a12.736,12.736,0,0,1,2.78-.667l.059-.007A9.189,9.189,0,0,1,14.4.018,6.52,6.52,0,0,1,15.909.23l.152.04a3.245,3.245,0,0,1,1.354.566c.068.051.128.1.182.146l.03.025A4.088,4.088,0,0,1,21.519,5.1V9.908l-.046-.015a1.7,1.7,0,0,1,1.158,1.6v.2A1.911,1.911,0,0,1,20.7,13.6h-.232a7.292,7.292,0,0,1-2.78,5.021V20.94a.5.5,0,0,1,.212-.01v-.01l1.152.1a1.209,1.209,0,0,1,1.092,1.4ZM6.418,2.948a6.6,6.6,0,0,1-1.4.343,5.381,5.381,0,0,0,.829.748.035.035,0,0,1,.02-.01l.02.04c.162.121.323.242.515.364l.414.263h0a6.244,6.244,0,0,0,.829.475c.121.051.273.121.505.242A6.719,6.719,0,0,0,11.1,6.12a11.024,11.024,0,0,0,3.255-.242c1.294-.253,3.154-.778,3.174-.788a.4.4,0,0,1,.485.232A6.358,6.358,0,0,1,19.184,7.11a4.232,4.232,0,0,1,.283,1.455.549.549,0,0,0,.5.546h.02l.738-.01V5.12a3.315,3.315,0,0,0-2.315-3.132,4.942,4.942,0,0,1,.495.993l.01.027a.4.4,0,0,1-.253.505.407.407,0,0,1-.515-.253,4.206,4.206,0,0,0-.455-.9l-.03-.04-.068-.092a2.832,2.832,0,0,0-.67-.716,2.8,2.8,0,0,0-1.053-.447l-.029-.008-.152-.04A5.332,5.332,0,0,0,14.342.826a8.783,8.783,0,0,0-1.85.1,11.166,11.166,0,0,0-2.618.626c-.445.141-1.011.384-1.6.636-.606.263-1.243.525-1.86.758ZM6.8,8.716V5.625l-.09-.055c-.084-.052-.188-.117-.334-.2L5.963,5.11c-.025-.015-.048-.03-.071-.045s-.045-.03-.071-.045a1.144,1.144,0,0,0-.344.818V9.12H6.4a.405.405,0,0,0,.4-.4Zm-.313,3.6v.6a6.6,6.6,0,0,0,13.2.02v-.6a.4.4,0,0,1,.809,0v.5h.2a1.109,1.109,0,0,0,1.122-1.1v-.2a.9.9,0,0,0-.91-.9.405.405,0,0,1-.4-.4.393.393,0,0,1,.152-.313h-.718a1.346,1.346,0,0,1-1.314-1.323A3.567,3.567,0,0,0,18.406,7.4a5.632,5.632,0,0,0-.95-1.475c-.566.162-1.92.525-2.961.727a11.826,11.826,0,0,1-2.557.293q-.425,0-.91-.03A7.6,7.6,0,0,1,7.773,6.13a.786.786,0,0,0-.1-.055c-.024-.012-.048-.023-.069-.035V8.7A1.216,1.216,0,0,1,6.378,9.9H5.529a.393.393,0,0,1,.142.3.405.405,0,0,1-.4.4.9.9,0,0,0-.91.9v.2a1.108,1.108,0,0,0,1.122,1.1h.2v-.495a.4.4,0,0,1,.809,0ZM9.3,22.637a4.755,4.755,0,0,0,7.581-.091V19.172a7.487,7.487,0,0,1-7.581,0ZM13.473,33.2l3-9.112a5.463,5.463,0,0,1-3.437,1.192,5.556,5.556,0,0,1-3.507-1.253l3.174,9.183a.389.389,0,0,0,.384.273A.4.4,0,0,0,13.473,33.2ZM.809,34.325a.405.405,0,0,0,.4.4H10.7L8.591,30.689V32.84a.811.811,0,0,1-.809.808H3.032a.811.811,0,0,1-.809-.808V30.113a.811.811,0,0,1,.809-.808H5.054V28.7a.4.4,0,0,1,.809,0V29.3h2L6.3,26.314a1.2,1.2,0,0,1,.222-1.4l.546-.545a.4.4,0,0,0,.01-.556L6.4,23.082l-2.092.576a4.739,4.739,0,0,0-3.5,4.536ZM7.783,32.84V30.113H3.032V32.84ZM11.613,34.7h2.972l4.407-8.819a.418.418,0,0,0-.081-.465l-.505-.505a1.165,1.165,0,0,1-.354-.869,1.222,1.222,0,0,1,.394-.859L19.2,22.5a.4.4,0,0,0-.232-.7l-.879-.071-.162.485-.01.04c-.018.053-.03.1-.042.139a1.8,1.8,0,0,1-.089.255L14.231,33.436a1.186,1.186,0,0,1-1.142.828h-.01a1.177,1.177,0,0,1-1.152-.808L7.884,21.748l-.667.081a.41.41,0,0,0-.334.263.388.388,0,0,0,.071.394l.708.758a1.189,1.189,0,0,1-.03,1.667l-.546.546a.414.414,0,0,0-.071.475Zm13.453-.374h.01V28.2a4.738,4.738,0,0,0-3.487-4.536l-1.86-.515-.708.636a.415.415,0,0,0-.131.293.4.4,0,0,0,.121.293l.505.505a1.183,1.183,0,0,1,.232,1.384L15.5,34.729h9.157A.405.405,0,0,0,25.066,34.325ZM11.32,8.793a.4.4,0,0,1,0,.809H9.4a.4.4,0,1,1,0-.809Zm5.458.809h-1.92a.4.4,0,0,1,0-.809h1.92a.4.4,0,0,1,0,.809Zm-.96,2.325a.556.556,0,1,0-.556-.556A.556.556,0,0,0,15.818,11.927Zm-4.9-.556a.556.556,0,1,1-.556-.556A.556.556,0,0,1,10.916,11.371Zm4.789,3.7a.4.4,0,0,0-.688-.424,2.324,2.324,0,0,1-3.964,0,.4.4,0,0,0-.688.424,3.121,3.121,0,0,0,5.34,0Z" transform="translate(0 0)" fill="#445665" fill-rule="evenodd"/>
  </g>
</svg>
