<svg id="Group_164" data-name="Group 164" xmlns="http://www.w3.org/2000/svg" width="16.462" height="15" viewBox="0 0 16.462 15">
  <path id="Path_23" data-name="Path 23" d="M10.205,14.619a.655.655,0,0,0,0,.984l3.787,3.44a.818.818,0,0,0,1.053.022l3.732-3.389a.654.654,0,0,0,0-.984.817.817,0,0,0-1.08,0l-3.205,2.877-3.209-2.953A.817.817,0,0,0,10.205,14.619Z" transform="translate(-6.264 -8.753)" fill="#446dcb"/>
  <path id="Path_24" data-name="Path 24" d="M3.375,10.875c0,4.143,3.684,7.5,8.231,7.5s8.231-3.357,8.231-7.5-3.684-7.5-8.231-7.5S3.375,6.732,3.375,10.875ZM16.529,6.389a5.948,5.948,0,0,1,0,8.971,7.26,7.26,0,0,1-4.923,1.861,7.26,7.26,0,0,1-4.923-1.861,5.948,5.948,0,0,1,0-8.971,7.26,7.26,0,0,1,4.923-1.861A7.26,7.26,0,0,1,16.529,6.389Z" transform="translate(-3.375 -3.375)" fill="#446dcb"/>
</svg>
