<svg id="Icons" xmlns="http://www.w3.org/2000/svg" width="25.284" height="35.578" viewBox="0 0 25.284 35.578">
  <g id="Group_213" data-name="Group 213">
    <path id="Path_1013" data-name="Path 1013" d="M192.525,54.571a.378.378,0,0,1,.736,0c.271,1.166.648,1.291,1.22,1.48a.378.378,0,0,1,0,.717c-.949.314-1.057.777-1.22,1.479a.378.378,0,0,1-.736,0c-.27-1.166-.669-1.3-1.22-1.479a.378.378,0,0,1,0-.717C191.835,55.876,192.248,55.763,192.525,54.571Z" transform="translate(-191.047 -46.956)"/>
    <path id="Path_1014" data-name="Path 1014" d="M61.55,18.521a.71.71,0,0,0,0-1l-1.7-1.7a2.13,2.13,0,0,0-1.506-.624H50.375v1.42h7.966a.71.71,0,0,1,.5.208l1.7,1.7a.71.71,0,0,0,1,0Z" transform="translate(-38.096 -13.416)" fill="#f0c020"/>
    <path id="Path_1015" data-name="Path 1015" d="M121.284,52.88v3.038H112.91V52.88a.71.71,0,0,1,.71-.71h6.955A.71.71,0,0,1,121.284,52.88Z" transform="translate(-106.5 -45.146)" fill="#f0c020"/>
    <path id="Path_1016" data-name="Path 1016" d="M112.914,63.158v1.431h8.373V63.158a10.381,10.381,0,0,0-8.373,0Z" transform="translate(-106.503 -53.817)" fill="#e8a61e"/>
    <path id="Path_1017" data-name="Path 1017" d="M136.081,30.046h-2.507v3.14h2.507Z" transform="translate(-124.23 -26.163)" fill="#efefef"/>
    <path id="Path_1018" data-name="Path 1018" d="M136.081,30.046h-2.507v1.332h2.507Z" transform="translate(-124.23 -26.163)" fill="#afafaf"/>
    <path id="Path_1019" data-name="Path 1019" d="M114.664,15.2v1.42h2.256v-.71a3.083,3.083,0,0,0-.082-.71Z" transform="translate(-102.385 -13.421)" fill="#e8a61e"/>
    <path id="Path_1020" data-name="Path 1020" d="M127.549,7.32V8.347a.71.71,0,0,1-.71.71h-4.47a.71.71,0,0,1-.71-.71V7.32a2.13,2.13,0,0,1,2.129-2.129h1.631A2.13,2.13,0,0,1,127.549,7.32Z" transform="translate(-114.007 -4.836)" fill="#72c2e9"/>
    <path id="Path_1021" data-name="Path 1021" d="M94.971,78.684V93.691a1.359,1.359,0,0,1-1.359,1.359H77.523a1.359,1.359,0,0,1-1.359-1.359V78.684a9.4,9.4,0,1,1,18.807,0Z" transform="translate(-74.97 -59.827)" fill="#efefef"/>
    <path id="Path_1022" data-name="Path 1022" d="M76.164,107.527v15.008a1.359,1.359,0,0,0,1.359,1.359h16.09a1.359,1.359,0,0,0,1.359-1.359V107.527a9.346,9.346,0,0,0-1.219-4.631H77.382A9.359,9.359,0,0,0,76.164,107.527Z" transform="translate(-74.97 -88.671)" fill="#72c2e9"/>
    <path id="Path_1023" data-name="Path 1023" d="M44.817,56.315a1.684,1.684,0,0,1-3.368,0A6.772,6.772,0,0,1,42.788,53.7a.425.425,0,0,1,.691,0,6.774,6.774,0,0,1,1.339,2.612Z" transform="translate(-19.888 -46.309)" fill="#72c2e9"/>
    <ellipse id="Ellipse_113" data-name="Ellipse 113" cx="7.059" cy="7.059" rx="7.059" ry="7.059" transform="translate(3.538 17.339)" fill="#4ba5c8"/>
    <ellipse id="Ellipse_114" data-name="Ellipse 114" cx="6.065" cy="6.065" rx="6.065" ry="6.065" transform="translate(4.532 18.333)" fill="#fc5d3d"/>
    <path id="Path_1024" data-name="Path 1024" d="M113.624,149.917a1.705,1.705,0,0,0,1.7-1.7v-.737h.737a1.705,1.705,0,0,0,1.7-1.7v-1.48a1.705,1.705,0,0,0-1.7-1.7h-.737v-.737a1.705,1.705,0,0,0-1.7-1.7h-1.48a1.705,1.705,0,0,0-1.7,1.7v.737H109.7a1.705,1.705,0,0,0-1.7,1.7v1.48a1.705,1.705,0,0,0,1.7,1.7h.737v.737a1.705,1.705,0,0,0,1.7,1.7h1.48Z" transform="translate(-102.287 -120.635)" fill="#b25035"/>
    <path id="Path_1025" data-name="Path 1025" d="M115.71,149.589h1.731v-1.731a.71.71,0,0,1,.71-.71h1.48a.71.71,0,0,1,.71.71v1.731h1.731a.71.71,0,0,1,.71.71v1.48a.71.71,0,0,1-.71.71H120.34v1.731a.71.71,0,0,1-.71.71h-1.48a.71.71,0,0,1-.71-.71v-1.731H115.71a.71.71,0,0,1-.71-.71V150.3A.71.71,0,0,1,115.71,149.589Z" transform="translate(-108.293 -126.64)" fill="#efefef"/>
    <path id="Path_1026" data-name="Path 1026" d="M199.934,65.35a1.866,1.866,0,0,1,.558.629,1.97,1.97,0,0,1,.592-.625,1.868,1.868,0,0,1-.586-.659A1.934,1.934,0,0,1,199.934,65.35Z" transform="translate(-198.654 -55.894)" fill="#ffc000"/>
    <path id="Path_1027" data-name="Path 1027" d="M140.547,80.691a7.648,7.648,0,0,1,6.21-3.2.355.355,0,1,0,0-.71,8.36,8.36,0,0,0-6.788,3.5.355.355,0,0,0,.578.412Z" transform="translate(-136.16 -66.26)" fill="#fff"/>
    <path id="Path_1028" data-name="Path 1028" d="M186.039,120.684a.355.355,0,0,0,.355-.355V119.9a.355.355,0,1,0-.71,0v.426A.355.355,0,0,0,186.039,120.684Zm0-1.846a.355.355,0,0,0,.355-.355v-13.1a7.569,7.569,0,0,1,1.419-4.425.355.355,0,0,0-.577-.413,8.274,8.274,0,0,0-1.551,4.837v13.1A.355.355,0,0,0,186.039,118.839Z" transform="translate(-183.426 -86.526)" fill="#c5e5fe"/>
    <ellipse id="Ellipse_115" data-name="Ellipse 115" cx="0.355" cy="0.355" rx="0.355" ry="0.355" transform="translate(17.324 1.421)"/>
    <path id="Path_1029" data-name="Path 1029" d="M40.989,56.212a2.041,2.041,0,0,1-2.039-2.039,6.128,6.128,0,0,1,1.406-2.82.781.781,0,0,1,1.266,0,6.125,6.125,0,0,1,1.406,2.82,2.041,2.041,0,0,1-2.039,2.039Zm.057-4.443a.07.07,0,0,0-.115,0,6.165,6.165,0,0,0-1.272,2.4,1.329,1.329,0,1,0,2.658,0A6.157,6.157,0,0,0,41.046,51.768Z" transform="translate(-17.744 -44.167)"/>
    <path id="Path_1030" data-name="Path 1030" d="M103.6,142.171a6.427,6.427,0,0,1-6.42-6.416s0,0,0,0a6.429,6.429,0,0,1,1.518-4.145.366.366,0,0,1,.5-.041.355.355,0,0,1,.041.5,5.716,5.716,0,0,0-1.35,3.684s0,0,0,0a5.71,5.71,0,1,0,5.711-5.71h0a5.677,5.677,0,0,0-2.23.451.355.355,0,1,1-.277-.653,6.354,6.354,0,0,1,2.5-.508h0a6.42,6.42,0,1,1,0,12.84Z" transform="translate(-93.004 -111.353)"/>
    <path id="Path_1031" data-name="Path 1031" d="M165.81,138.314a0,0,0,0,0,0,0,.355.355,0,0,1-.422-.572.365.365,0,0,1,.5.075A.355.355,0,0,1,165.81,138.314Z" transform="translate(-158.598 -118.514)"/>
    <path id="Path_1032" data-name="Path 1032" d="M114.94,147.09v-1.376a1.066,1.066,0,0,1,1.065-1.065h1.48a1.066,1.066,0,0,1,1.065,1.065v1.376h1.376a1.066,1.066,0,0,1,1.065,1.065v1.48a1.066,1.066,0,0,1-1.065,1.065H118.55v1.376a1.066,1.066,0,0,1-1.065,1.065h-1.48a1.066,1.066,0,0,1-1.065-1.065V150.7h-1.376a1.066,1.066,0,0,1-1.065-1.065v-1.48a1.066,1.066,0,0,1,1.065-1.065Zm-1.731,1.065v1.48a.355.355,0,0,0,.355.355H115.3a.355.355,0,0,1,.355.355v1.731a.355.355,0,0,0,.355.355h1.48a.355.355,0,0,0,.355-.355v-1.731a.355.355,0,0,1,.355-.355h1.731a.355.355,0,0,0,.355-.355v-1.48a.355.355,0,0,0-.355-.355H118.2a.355.355,0,0,1-.355-.355v-1.731a.355.355,0,0,0-.355-.355h-1.48a.355.355,0,0,0-.355.355v1.731a.355.355,0,0,1-.355.355h-1.731A.355.355,0,0,0,113.21,148.154Z" transform="translate(-106.148 -124.496)"/>
    <ellipse id="Ellipse_116" data-name="Ellipse 116" cx="0.355" cy="0.355" rx="0.355" ry="0.355" transform="translate(19.647 27.73)"/>
    <path id="Path_1033" data-name="Path 1033" d="M67.39,36.555a1.718,1.718,0,0,1-1.715,1.715H49.587a1.716,1.716,0,0,1-1.714-1.714V21.548a9.773,9.773,0,0,1,5.217-8.633v-2.49A1.066,1.066,0,0,1,54.155,9.36h1.868V7.267H55.4A1.066,1.066,0,0,1,54.331,6.2V5.175a2.487,2.487,0,0,1,2.484-2.484h1.631a2.485,2.485,0,0,1,2.242,1.421h2.6a.355.355,0,1,1,0,.71H60.9a2.485,2.485,0,0,1,.028.354v.356h6.348a1.058,1.058,0,0,1,.754.311l1.7,1.7a.355.355,0,0,0,.5-.5l-1.7-1.7a1.787,1.787,0,0,0-1.252-.519h-1.15a.355.355,0,1,1,0-.71h1.146a2.5,2.5,0,0,1,1.757.727l1.7,1.7a1.065,1.065,0,1,1-1.5,1.506l-1.7-1.7a.353.353,0,0,0-.252-.1h-6.35a1.065,1.065,0,0,1-1.063,1.026H59.24V9.36h1.868a1.066,1.066,0,0,1,1.065,1.065v2.49A9.773,9.773,0,0,1,67.39,21.54c.008.35,0-1.559,0,7.816a.355.355,0,1,1-.71,0c0-9.327,0-7.591,0-7.808A8.991,8.991,0,0,0,65.6,17.271H49.659a8.991,8.991,0,0,0-1.077,4.277V36.555a1,1,0,0,0,1,1H65.676a1.006,1.006,0,0,0,1-1.01V32.2a.355.355,0,0,1,.71,0v4.36ZM60.221,6.2v-.31s0,0,0-.007,0,0,0-.007v-.7A1.776,1.776,0,0,0,58.447,3.4H56.816a1.776,1.776,0,0,0-1.775,1.775V6.2a.355.355,0,0,0,.355.355h4.47A.356.356,0,0,0,60.221,6.2ZM58.53,7.267h-1.8V9.36h1.8Zm2.933,3.157a.355.355,0,0,0-.355-.355H54.155a.355.355,0,0,0-.355.355v2.15a9.746,9.746,0,0,1,7.663,0Zm3.714,6.137a9.039,9.039,0,0,0-15.092,0Z" transform="translate(-47.034 -2.691)"/>
    <path id="Path_1034" data-name="Path 1034" d="M91.543,222.829v-.7a.355.355,0,0,1,.71,0v.7a.355.355,0,1,1-.71,0Z" transform="translate(-74.435 -190.674)"/>
    <path id="Path_1035" data-name="Path 1035" d="M97.181,124.244v-.7a.355.355,0,1,1,.71,0v.7a.355.355,0,1,1-.71,0Z" transform="translate(-80.874 -106.084)"/>
    <path id="Path_1036" data-name="Path 1036" d="M181.415,121.787v-.7a.355.355,0,1,1,.71,0v.7a.355.355,0,1,1-.71,0Z" transform="translate(-177.066 -103.976)"/>
    <path id="Path_1037" data-name="Path 1037" d="M177.529,215.132v.7a.355.355,0,1,1-.71,0v-.7a.355.355,0,0,1,.71,0Z" transform="translate(-171.817 -184.669)"/>
    <path id="Path_1038" data-name="Path 1038" d="M134.891,231.217v.7a.355.355,0,0,1-.71,0v-.7a.355.355,0,1,1,.71,0Z" transform="translate(-123.126 -198.47)"/>
  </g>
</svg>
