<?xml version="1.0" encoding="utf-8"?><!-- Uploaded to: SVG Repo, www.svgrepo.com, Generator: SVG Repo Mixer Tools -->
<svg width="800px" height="800px" viewBox="0 0 24 24" fill="none" xmlns="http://www.w3.org/2000/svg">
<path d="M11 22.6C9.00292 22.6034 7.06648 21.9141 5.52077 20.6495C3.97506 19.3849 2.91577 17.6234 2.52347 15.6652C2.13117 13.7071 2.43015 11.6735 3.36945 9.91105C4.30874 8.14864 5.8302 6.76655 7.67446 6.00038C9.51873 5.23421 11.5716 5.13138 13.4832 5.70942C15.3948 6.28747 17.0468 7.5106 18.1575 9.17033C19.2682 10.83 19.7689 12.8236 19.5742 14.8112C19.3796 16.7988 18.5016 18.6573 17.09 20.07C16.2926 20.8734 15.3438 21.5107 14.2984 21.945C13.2531 22.3793 12.132 22.6019 11 22.6ZM11 6.85C9.35119 6.84323 7.75113 7.40891 6.47295 8.4505C5.19478 9.49209 4.31772 10.945 3.9915 12.5612C3.66527 14.1775 3.91011 15.8568 4.6842 17.3127C5.4583 18.7685 6.71367 19.9105 8.23602 20.5438C9.75838 21.1771 11.4533 21.2624 13.0316 20.7852C14.6098 20.3079 15.9735 19.2977 16.8899 17.927C17.8063 16.5562 18.2185 14.9099 18.0562 13.2691C17.8939 11.6283 17.1671 10.0947 16 8.93C14.6742 7.6024 12.8762 6.85444 11 6.85Z" fill="#000000"/>
<path d="M18.37 12C18.172 11.9957 17.9828 11.9172 17.84 11.78C17.7013 11.6364 17.6238 11.4446 17.6238 11.245C17.6238 11.0454 17.7013 10.8536 17.84 10.71L19.84 8.71L16.31 5.21L14.37 7.15C14.2294 7.29045 14.0387 7.36934 13.84 7.36934C13.6412 7.36934 13.4506 7.29045 13.31 7.15C13.2392 7.08105 13.183 6.99864 13.1446 6.90761C13.1062 6.81659 13.0864 6.71879 13.0864 6.62C13.0864 6.52121 13.1062 6.42341 13.1446 6.33239C13.183 6.24136 13.2392 6.15895 13.31 6.09L15.78 3.62C15.9231 3.48425 16.1128 3.40857 16.31 3.40857C16.5072 3.40857 16.6969 3.48425 16.84 3.62L21.41 8.19C21.5504 8.33063 21.6293 8.52125 21.6293 8.72C21.6293 8.91875 21.5504 9.10937 21.41 9.25L18.9 11.76C18.8321 11.8333 18.7502 11.8923 18.6592 11.9335C18.5682 11.9747 18.4699 11.9973 18.37 12Z" fill="#000000"/>
<path d="M18.52 7.11001C18.343 7.11509 18.1699 7.05738 18.0314 6.94709C17.8928 6.8368 17.7978 6.68105 17.763 6.5074C17.7283 6.33376 17.7561 6.15342 17.8416 5.99833C17.9271 5.84324 18.0647 5.72339 18.23 5.66001C18.23 5.66001 18.97 5.34001 19.09 4.76001C19.21 4.18001 18.8 3.50001 18 2.68001C17.9293 2.61106 17.873 2.52864 17.8346 2.43762C17.7962 2.34659 17.7764 2.2488 17.7764 2.15001C17.7764 2.05121 17.7962 1.95342 17.8346 1.86239C17.873 1.77137 17.9293 1.68895 18 1.62001C18.1406 1.47955 18.3313 1.40067 18.53 1.40067C18.7288 1.40067 18.9194 1.47955 19.06 1.62001C20.28 2.84001 20.78 4.00001 20.56 5.07001C20.4405 5.51641 20.2195 5.92917 19.9142 6.27609C19.6089 6.62301 19.2276 6.89471 18.8 7.07001C18.7107 7.10342 18.6151 7.11706 18.52 7.11001Z" fill="#000000"/>
</svg>